<svg xmlns="http://www.w3.org/2000/svg" version="1.1" xmlns:xlink="http://www.w3.org/1999/xlink" xmlns:svgjs="http://svgjs.dev/svgjs" width="1440" height="560" preserveAspectRatio="none" viewBox="0 0 1440 560"><g mask="url(&quot;#SvgjsMask1000&quot;)" fill="none"><rect width="1440" height="560" x="0" y="0" fill="#0e2a47"></rect><path d="M -148.5298827245703,389 C -52.53,364.4 139.47,258.6 331.4701172754297,266 C 523.47,273.4 619.47,432.2 811.4701172754296,426 C 1003.47,419.8 1099.47,258.6 1291.4701172754296,235 C 1483.47,211.4 1741.76,304.4 1771.4701172754296,308 C 1801.18,311.6 1506.29,264 1440,253" stroke="rgba(51, 121, 194, 0.58)" stroke-width="2"></path><path d="M -576.540388996465,414 C -480.54,379.8 -288.54,258 -96.54038899646507,243 C 95.46,228 191.46,372 383.4596110035349,339 C 575.46,306 671.46,68.4 863.459611003535,78 C 1055.46,87.6 1228.15,358.2 1343.459611003535,387 C 1458.77,415.8 1420.69,255 1440,222" stroke="rgba(51, 121, 194, 0.58)" stroke-width="2"></path><path d="M -44.68142902588312,400 C 51.32,375.8 243.32,279 435.3185709741169,279 C 627.32,279 723.32,402.6 915.3185709741169,400 C 1107.32,397.4 1203.32,289.6 1395.318570974117,266 C 1587.32,242.4 1866.38,306 1875.318570974117,282 C 1884.25,258 1527.06,173.2 1440,146" stroke="rgba(51, 121, 194, 0.58)" stroke-width="2"></path><path d="M -475.11386740637687,112 C -379.11,177.4 -187.11,428.4 4.886132593623156,439 C 196.89,449.6 292.89,176.8 484.88613259362313,165 C 676.89,153.2 772.89,368.6 964.8861325936232,380 C 1156.89,391.4 1349.86,201.6 1444.8861325936232,222 C 1539.91,242.4 1440.98,430 1440,482" stroke="rgba(51, 121, 194, 0.58)" stroke-width="2"></path></g><defs><mask id="SvgjsMask1000"><rect width="1440" height="560" fill="#ffffff"></rect></mask></defs></svg>